<svg width="89" height="79" viewBox="0 0 89 79" fill="none" xmlns="http://www.w3.org/2000/svg">
<g clip-path="url(#clip0_301_1185)">
<g opacity="0.05">
<mask id="path-1-inside-1_301_1185" fill="white">
<path d="M84.608 31.3555C84.5324 31.2188 84.4304 31.0985 84.3079 31.0016C84.1854 30.9048 84.0448 30.8332 83.8944 30.7912C80.4983 29.8412 76.5116 30.4242 72.9569 32.3908C70.8211 33.5525 68.9778 35.1854 67.567 37.1656L67.5388 37.0381C66.4596 32.1688 66.4596 30.3291 67.5388 25.4599L68.3475 21.8099C68.3857 21.6377 68.3847 21.4591 68.3447 21.2874C68.3046 21.1156 68.2265 20.9551 68.1161 20.8175C68.0057 20.68 67.8658 20.569 67.7068 20.4927C67.5478 20.4165 67.3737 20.3769 67.1973 20.3769H52.5365C52.3601 20.3769 52.186 20.4165 52.027 20.4927C51.8679 20.569 51.7281 20.68 51.6177 20.8175C51.5073 20.9551 51.4292 21.1156 51.3891 21.2874C51.3491 21.4591 51.3481 21.6377 51.3862 21.8099L52.195 25.4599C53.274 30.3291 53.274 32.1688 52.195 37.0381L51.3862 40.6881C51.382 40.7071 51.3801 40.7264 51.3769 40.7457C51.3731 40.7676 51.3686 40.7894 51.3661 40.8115C51.3636 40.8337 51.3632 40.8554 51.362 40.8774C51.3608 40.8993 51.3588 40.921 51.3588 40.943C51.3588 40.965 51.3608 40.9868 51.362 41.0087C51.3632 41.0306 51.3637 41.0526 51.3661 41.0746C51.3686 41.0965 51.3731 41.1185 51.3769 41.1404C51.3801 41.1596 51.3821 41.1789 51.3862 41.198L52.195 44.848C53.2742 49.7173 53.2742 51.5568 52.195 56.4261L51.5908 59.1528H41.0787L40.4744 56.4261C39.3952 51.5568 39.3952 49.7173 40.4744 44.848L41.2832 41.198C41.2875 41.1789 41.2893 41.1597 41.2926 41.1404C41.2963 41.1185 41.3008 41.0967 41.3034 41.0746C41.3059 41.0524 41.3063 41.0307 41.3075 41.0087C41.3087 40.9867 41.3107 40.965 41.3107 40.943C41.3107 40.921 41.3087 40.8993 41.3075 40.8774C41.3062 40.8555 41.3058 40.8335 41.3034 40.8115C41.3009 40.7896 41.2963 40.7676 41.2926 40.7457C41.2893 40.7265 41.2874 40.7072 41.2832 40.6881L40.4744 37.0381C39.3953 32.1688 39.3953 30.3291 40.4744 25.4599L41.2832 21.8099C41.2875 21.7908 41.2893 21.7716 41.2926 21.7523C41.2963 21.7304 41.3008 21.7086 41.3034 21.6864C41.3059 21.6643 41.3063 21.6425 41.3075 21.6206C41.3087 21.5986 41.3107 21.5769 41.3107 21.5549C41.3107 21.5329 41.3087 21.5111 41.3075 21.4893C41.3062 21.4674 41.3058 21.4454 41.3034 21.4234C41.3009 21.4014 41.2963 21.3795 41.2926 21.3575C41.2893 21.3384 41.2874 21.3191 41.2832 21.2999L40.4744 17.65C39.3952 12.7807 39.3952 10.9412 40.4744 6.07189L41.2832 2.42188C41.3214 2.2497 41.3204 2.07114 41.2804 1.89939C41.2403 1.72764 41.1622 1.56707 41.0518 1.42953C40.9414 1.292 40.8015 1.181 40.6425 1.10474C40.4835 1.02847 40.3094 0.988884 40.133 0.988892H25.4722C25.2958 0.988888 25.1217 1.02848 24.9627 1.10475C24.8036 1.18101 24.6638 1.29201 24.5534 1.42954C24.443 1.56708 24.3649 1.72765 24.3248 1.8994C24.2848 2.07115 24.2838 2.2497 24.3219 2.42188L25.1307 6.07189C26.2099 10.9412 26.2099 12.7807 25.1307 17.65L25.0856 17.8538C23.6521 15.6953 21.7119 13.9206 19.4344 12.6848C15.8798 10.7182 11.8931 10.1354 8.49699 11.0853C8.34657 11.1273 8.20601 11.1989 8.0835 11.2958C7.96099 11.3927 7.85897 11.5129 7.78337 11.6496C7.70778 11.7863 7.66011 11.9366 7.64316 12.0919C7.62621 12.2471 7.6403 12.4042 7.68462 12.554C8.68491 15.9358 11.2973 19.0029 14.8519 20.9691C17.169 22.2785 19.779 22.982 22.4403 23.0147C23.147 23.0134 23.8524 22.9537 24.5493 22.8363L25.1307 25.4598C26.2097 30.3291 26.2097 32.1687 25.1307 37.038L24.3219 40.688C24.3177 40.7071 24.3158 40.7263 24.3125 40.7456C24.3088 40.7675 24.3043 40.7893 24.3018 40.8115C24.2993 40.8336 24.2989 40.8553 24.2976 40.8773C24.2964 40.8993 24.2944 40.921 24.2944 40.943C24.2944 40.965 24.2964 40.9867 24.2976 41.0086C24.2989 41.0305 24.2993 41.0525 24.3018 41.0745C24.3042 41.0965 24.3088 41.1184 24.3125 41.1404C24.3158 41.1595 24.3177 41.1788 24.3219 41.198L25.1307 44.848C26.2098 49.7172 26.2098 51.5567 25.1307 56.426L24.4038 59.7064C18.2846 64.0246 14.9225 69.7422 14.9225 75.8639C14.9225 82.2528 18.5657 88.1803 25.1809 92.5543C25.6487 92.8578 25.9872 93.3241 26.1309 93.8629C26.2745 94.4018 26.213 94.9747 25.9583 95.4708L23.7997 99.6227C23.7063 99.8022 23.6608 100.003 23.6675 100.205C23.6742 100.407 23.7329 100.605 23.8379 100.778C23.943 100.951 24.0908 101.094 24.2672 101.193C24.4436 101.292 24.6426 101.344 24.845 101.344H68.017C68.2193 101.344 68.4183 101.292 68.5947 101.193C68.7711 101.094 68.9189 100.951 69.024 100.778C69.129 100.605 69.1877 100.407 69.1944 100.205C69.2011 100.003 69.1556 99.8022 69.0623 99.6227L66.9038 95.4708C66.649 94.9747 66.5875 94.4018 66.7311 93.8629C66.8747 93.3241 67.2133 92.8578 67.6812 92.5543C74.2964 88.1802 77.9394 82.2526 77.9394 75.8637C77.9394 69.6669 74.4934 63.8848 68.2307 59.5485L67.5388 56.4258C66.4595 51.5565 66.4595 49.717 67.5388 44.8478L68.0422 42.5758C68.6741 42.6713 69.3122 42.7197 69.9513 42.7206C72.6125 42.6878 75.2224 41.9842 77.5395 40.675C81.0942 38.7087 83.7066 35.6415 84.7069 32.2598C84.7512 32.11 84.7652 31.953 84.7482 31.7977C84.7313 31.6424 84.6836 31.4921 84.608 31.3555ZM54.4956 24.95L54.0044 22.733H65.7297L65.2384 24.95C64.0903 30.1304 64.0903 32.3674 65.2384 37.5479L65.7297 39.7649H54.0042L54.4955 37.5479C55.6434 32.3674 55.6435 30.1304 54.4956 24.95ZM54.4956 44.338L54.0044 42.121H65.7297L65.2384 44.338C64.0903 49.5183 64.0903 51.7553 65.2384 56.9356L65.7297 59.1526H54.0042L54.4955 56.9356C55.6434 51.7553 55.6435 49.5183 54.4956 44.338ZM27.4313 44.338L26.9401 42.121H38.6654L38.1741 44.338C37.0261 49.5183 37.0261 51.7553 38.1741 56.9356L38.6654 59.1526H26.9399L27.4312 56.9356C28.5792 51.7553 28.5793 49.5183 27.4313 44.338ZM27.4313 24.95L26.9401 22.733H38.6654L38.1741 24.95C37.0261 30.1304 37.0261 32.3674 38.1741 37.5479L38.6654 39.7649H26.9399L27.4312 37.5479C28.5792 32.3674 28.5793 30.1304 27.4313 24.95ZM27.4313 5.56221L26.9401 3.3452H38.6654L38.1741 5.56221C37.0261 10.7425 37.0261 12.9796 38.1741 18.1598L38.6654 20.3768H26.9399L27.4312 18.1598C28.5792 12.9796 28.5793 10.7425 27.4313 5.56221ZM15.9926 18.9073C13.4159 17.4821 11.432 15.4076 10.3927 13.0929C12.9052 12.7421 15.7172 13.3213 18.294 14.7466C20.8707 16.1717 22.8546 18.2464 23.8939 20.5612C21.3806 20.911 18.5691 20.3326 15.9926 18.9073ZM75.5832 75.8638C75.5832 81.4357 72.3153 86.6652 66.3816 90.5889C65.4272 91.2127 64.7383 92.1687 64.4486 93.2714C64.1588 94.3742 64.2887 95.5453 64.8132 96.5577L66.0767 98.988H26.7854L28.0489 96.5577C28.5733 95.5453 28.7033 94.3742 28.4135 93.2715C28.1238 92.1687 27.4349 91.2128 26.4805 90.589C20.5467 86.6653 17.2787 81.4358 17.2787 75.8639C17.2787 70.4755 20.3495 65.3892 25.9357 61.5089H66.9263C72.5125 65.3892 75.5832 70.4754 75.5832 75.8638ZM76.3989 38.6134C73.8221 40.0386 71.0107 40.6177 68.4976 40.2671C69.5368 37.9523 71.5207 35.8778 74.0975 34.4525C76.6744 33.0271 79.4856 32.4483 81.9989 32.7988C80.9596 35.1135 78.9756 37.188 76.3989 38.6134Z"/>
</mask>
<path d="M84.608 31.3555C84.5324 31.2188 84.4304 31.0985 84.3079 31.0016C84.1854 30.9048 84.0448 30.8332 83.8944 30.7912C80.4983 29.8412 76.5116 30.4242 72.9569 32.3908C70.8211 33.5525 68.9778 35.1854 67.567 37.1656L67.5388 37.0381C66.4596 32.1688 66.4596 30.3291 67.5388 25.4599L68.3475 21.8099C68.3857 21.6377 68.3847 21.4591 68.3447 21.2874C68.3046 21.1156 68.2265 20.9551 68.1161 20.8175C68.0057 20.68 67.8658 20.569 67.7068 20.4927C67.5478 20.4165 67.3737 20.3769 67.1973 20.3769H52.5365C52.3601 20.3769 52.186 20.4165 52.027 20.4927C51.8679 20.569 51.7281 20.68 51.6177 20.8175C51.5073 20.9551 51.4292 21.1156 51.3891 21.2874C51.3491 21.4591 51.3481 21.6377 51.3862 21.8099L52.195 25.4599C53.274 30.3291 53.274 32.1688 52.195 37.0381L51.3862 40.6881C51.382 40.7071 51.3801 40.7264 51.3769 40.7457C51.3731 40.7676 51.3686 40.7894 51.3661 40.8115C51.3636 40.8337 51.3632 40.8554 51.362 40.8774C51.3608 40.8993 51.3588 40.921 51.3588 40.943C51.3588 40.965 51.3608 40.9868 51.362 41.0087C51.3632 41.0306 51.3637 41.0526 51.3661 41.0746C51.3686 41.0965 51.3731 41.1185 51.3769 41.1404C51.3801 41.1596 51.3821 41.1789 51.3862 41.198L52.195 44.848C53.2742 49.7173 53.2742 51.5568 52.195 56.4261L51.5908 59.1528H41.0787L40.4744 56.4261C39.3952 51.5568 39.3952 49.7173 40.4744 44.848L41.2832 41.198C41.2875 41.1789 41.2893 41.1597 41.2926 41.1404C41.2963 41.1185 41.3008 41.0967 41.3034 41.0746C41.3059 41.0524 41.3063 41.0307 41.3075 41.0087C41.3087 40.9867 41.3107 40.965 41.3107 40.943C41.3107 40.921 41.3087 40.8993 41.3075 40.8774C41.3062 40.8555 41.3058 40.8335 41.3034 40.8115C41.3009 40.7896 41.2963 40.7676 41.2926 40.7457C41.2893 40.7265 41.2874 40.7072 41.2832 40.6881L40.4744 37.0381C39.3953 32.1688 39.3953 30.3291 40.4744 25.4599L41.2832 21.8099C41.2875 21.7908 41.2893 21.7716 41.2926 21.7523C41.2963 21.7304 41.3008 21.7086 41.3034 21.6864C41.3059 21.6643 41.3063 21.6425 41.3075 21.6206C41.3087 21.5986 41.3107 21.5769 41.3107 21.5549C41.3107 21.5329 41.3087 21.5111 41.3075 21.4893C41.3062 21.4674 41.3058 21.4454 41.3034 21.4234C41.3009 21.4014 41.2963 21.3795 41.2926 21.3575C41.2893 21.3384 41.2874 21.3191 41.2832 21.2999L40.4744 17.65C39.3952 12.7807 39.3952 10.9412 40.4744 6.07189L41.2832 2.42188C41.3214 2.2497 41.3204 2.07114 41.2804 1.89939C41.2403 1.72764 41.1622 1.56707 41.0518 1.42953C40.9414 1.292 40.8015 1.181 40.6425 1.10474C40.4835 1.02847 40.3094 0.988884 40.133 0.988892H25.4722C25.2958 0.988888 25.1217 1.02848 24.9627 1.10475C24.8036 1.18101 24.6638 1.29201 24.5534 1.42954C24.443 1.56708 24.3649 1.72765 24.3248 1.8994C24.2848 2.07115 24.2838 2.2497 24.3219 2.42188L25.1307 6.07189C26.2099 10.9412 26.2099 12.7807 25.1307 17.65L25.0856 17.8538C23.6521 15.6953 21.7119 13.9206 19.4344 12.6848C15.8798 10.7182 11.8931 10.1354 8.49699 11.0853C8.34657 11.1273 8.20601 11.1989 8.0835 11.2958C7.96099 11.3927 7.85897 11.5129 7.78337 11.6496C7.70778 11.7863 7.66011 11.9366 7.64316 12.0919C7.62621 12.2471 7.6403 12.4042 7.68462 12.554C8.68491 15.9358 11.2973 19.0029 14.8519 20.9691C17.169 22.2785 19.779 22.982 22.4403 23.0147C23.147 23.0134 23.8524 22.9537 24.5493 22.8363L25.1307 25.4598C26.2097 30.3291 26.2097 32.1687 25.1307 37.038L24.3219 40.688C24.3177 40.7071 24.3158 40.7263 24.3125 40.7456C24.3088 40.7675 24.3043 40.7893 24.3018 40.8115C24.2993 40.8336 24.2989 40.8553 24.2976 40.8773C24.2964 40.8993 24.2944 40.921 24.2944 40.943C24.2944 40.965 24.2964 40.9867 24.2976 41.0086C24.2989 41.0305 24.2993 41.0525 24.3018 41.0745C24.3042 41.0965 24.3088 41.1184 24.3125 41.1404C24.3158 41.1595 24.3177 41.1788 24.3219 41.198L25.1307 44.848C26.2098 49.7172 26.2098 51.5567 25.1307 56.426L24.4038 59.7064C18.2846 64.0246 14.9225 69.7422 14.9225 75.8639C14.9225 82.2528 18.5657 88.1803 25.1809 92.5543C25.6487 92.8578 25.9872 93.3241 26.1309 93.8629C26.2745 94.4018 26.213 94.9747 25.9583 95.4708L23.7997 99.6227C23.7063 99.8022 23.6608 100.003 23.6675 100.205C23.6742 100.407 23.7329 100.605 23.8379 100.778C23.943 100.951 24.0908 101.094 24.2672 101.193C24.4436 101.292 24.6426 101.344 24.845 101.344H68.017C68.2193 101.344 68.4183 101.292 68.5947 101.193C68.7711 101.094 68.9189 100.951 69.024 100.778C69.129 100.605 69.1877 100.407 69.1944 100.205C69.2011 100.003 69.1556 99.8022 69.0623 99.6227L66.9038 95.4708C66.649 94.9747 66.5875 94.4018 66.7311 93.8629C66.8747 93.3241 67.2133 92.8578 67.6812 92.5543C74.2964 88.1802 77.9394 82.2526 77.9394 75.8637C77.9394 69.6669 74.4934 63.8848 68.2307 59.5485L67.5388 56.4258C66.4595 51.5565 66.4595 49.717 67.5388 44.8478L68.0422 42.5758C68.6741 42.6713 69.3122 42.7197 69.9513 42.7206C72.6125 42.6878 75.2224 41.9842 77.5395 40.675C81.0942 38.7087 83.7066 35.6415 84.7069 32.2598C84.7512 32.11 84.7652 31.953 84.7482 31.7977C84.7313 31.6424 84.6836 31.4921 84.608 31.3555ZM54.4956 24.95L54.0044 22.733H65.7297L65.2384 24.95C64.0903 30.1304 64.0903 32.3674 65.2384 37.5479L65.7297 39.7649H54.0042L54.4955 37.5479C55.6434 32.3674 55.6435 30.1304 54.4956 24.95ZM54.4956 44.338L54.0044 42.121H65.7297L65.2384 44.338C64.0903 49.5183 64.0903 51.7553 65.2384 56.9356L65.7297 59.1526H54.0042L54.4955 56.9356C55.6434 51.7553 55.6435 49.5183 54.4956 44.338ZM27.4313 44.338L26.9401 42.121H38.6654L38.1741 44.338C37.0261 49.5183 37.0261 51.7553 38.1741 56.9356L38.6654 59.1526H26.9399L27.4312 56.9356C28.5792 51.7553 28.5793 49.5183 27.4313 44.338ZM27.4313 24.95L26.9401 22.733H38.6654L38.1741 24.95C37.0261 30.1304 37.0261 32.3674 38.1741 37.5479L38.6654 39.7649H26.9399L27.4312 37.5479C28.5792 32.3674 28.5793 30.1304 27.4313 24.95ZM27.4313 5.56221L26.9401 3.3452H38.6654L38.1741 5.56221C37.0261 10.7425 37.0261 12.9796 38.1741 18.1598L38.6654 20.3768H26.9399L27.4312 18.1598C28.5792 12.9796 28.5793 10.7425 27.4313 5.56221ZM15.9926 18.9073C13.4159 17.4821 11.432 15.4076 10.3927 13.0929C12.9052 12.7421 15.7172 13.3213 18.294 14.7466C20.8707 16.1717 22.8546 18.2464 23.8939 20.5612C21.3806 20.911 18.5691 20.3326 15.9926 18.9073ZM75.5832 75.8638C75.5832 81.4357 72.3153 86.6652 66.3816 90.5889C65.4272 91.2127 64.7383 92.1687 64.4486 93.2714C64.1588 94.3742 64.2887 95.5453 64.8132 96.5577L66.0767 98.988H26.7854L28.0489 96.5577C28.5733 95.5453 28.7033 94.3742 28.4135 93.2715C28.1238 92.1687 27.4349 91.2128 26.4805 90.589C20.5467 86.6653 17.2787 81.4358 17.2787 75.8639C17.2787 70.4755 20.3495 65.3892 25.9357 61.5089H66.9263C72.5125 65.3892 75.5832 70.4754 75.5832 75.8638ZM76.3989 38.6134C73.8221 40.0386 71.0107 40.6177 68.4976 40.2671C69.5368 37.9523 71.5207 35.8778 74.0975 34.4525C76.6744 33.0271 79.4856 32.4483 81.9989 32.7988C80.9596 35.1135 78.9756 37.188 76.3989 38.6134Z" fill="#121212" stroke="#F8F8F8" stroke-width="1.33597" mask="url(#path-1-inside-1_301_1185)"/>
</g>
</g>
<defs>
<clipPath id="clip0_301_1185">
<rect width="88.1738" height="77.4861" fill="white" transform="translate(0.104889 0.988953)"/>
</clipPath>
</defs>
</svg>
