<svg width="57" height="57" viewBox="0 0 57 57" fill="none" xmlns="http://www.w3.org/2000/svg">
<path d="M29.5411 31.673V46.3178C29.5411 46.7013 29.433 47.0771 29.2291 47.402C29.0253 47.7268 28.734 47.9877 28.3887 48.1545C28.0434 48.3214 27.658 48.3875 27.2768 48.3454C26.8957 48.3032 26.5342 48.1545 26.2337 47.9163C25.3166 47.1927 24.5758 46.2701 24.0675 45.2183C23.5593 44.1664 23.2967 43.0128 23.2997 41.8446V41.8448H23.5224L23.2997 41.8442L29.5411 31.673ZM29.5411 31.673L39.6076 41.7395C39.6077 41.7396 39.6077 41.7396 39.6078 41.7397C39.796 41.9295 40.0198 42.0801 40.2663 42.1831C40.513 42.286 40.7777 42.3392 41.045 42.3395H41.0454C41.2757 42.3392 41.5042 42.3003 41.7216 42.2243C42.0848 42.0996 42.405 41.8742 42.6451 41.5744C42.885 41.2747 43.035 40.913 43.0774 40.5314C43.2142 39.3714 43.0856 38.1954 42.7013 37.0923C42.3168 35.989 41.6866 34.9875 40.8583 34.1636L32.0989 25.4041L29.6476 22.9528V14.1593V14.159C29.6462 12.8972 29.1443 11.6876 28.2521 10.7953C27.3599 9.90313 26.1503 9.40125 24.8885 9.3998H24.8882H23.9091C23.7192 9.3998 23.5372 9.47521 23.4029 9.60946C23.2687 9.7437 23.1933 9.92577 23.1933 10.1156V20.8322L16.2561 13.895C16.1896 13.8285 16.1107 13.7757 16.0238 13.7398C15.937 13.7038 15.8439 13.6852 15.7498 13.6852C15.6558 13.6852 15.5627 13.7038 15.4759 13.7398C15.389 13.7757 15.3101 13.8285 15.2437 13.8949C15.2437 13.895 15.2436 13.895 15.2436 13.895L14.5513 14.5873L14.5512 14.5874C13.66 15.4806 13.1595 16.6909 13.1595 17.9526C13.1595 19.2143 13.66 20.4246 14.5512 21.3178L14.5513 21.3179L22.5088 29.2755C22.5089 29.2755 22.5089 29.2755 22.5089 29.2755L29.5411 31.673ZM23.2997 29.9141C23.335 29.9369 23.3707 29.9593 23.4066 29.9811L23.5224 29.7909H23.2997V29.9141ZM28.2159 14.1595V21.5212L28.2037 21.509L28.2035 21.5088C27.6997 21.0063 27.0471 20.6802 26.3428 20.579C25.7594 20.4952 25.1664 20.5696 24.6249 20.7911V10.8314L24.888 10.8314C24.888 10.8314 24.888 10.8314 24.8881 10.8314C25.7704 10.8325 26.6162 11.1834 27.2401 11.8073C27.864 12.4312 28.2149 13.2772 28.2159 14.1595ZM23.2012 22.8648L23.2012 22.8648C23.3355 22.999 23.5175 23.0745 23.7073 23.0745C23.8971 23.0745 24.0792 22.9991 24.2135 22.865L24.2135 22.8649L24.5571 22.5214L24.5677 22.5108C24.9163 22.1687 25.3854 21.9767 25.8742 21.9767C26.3681 21.9767 26.8418 22.1726 27.1915 22.5215L30.5803 25.9102L28.2273 28.2633C27.6032 28.8873 26.7568 29.2379 25.8743 29.2379C24.9917 29.2379 24.1453 28.8873 23.5212 28.2633L15.5639 20.3059C14.9407 19.6813 14.5907 18.835 14.5907 17.9527C14.5907 17.0703 14.9407 16.224 15.5639 15.5994L15.7498 15.4135L23.2012 22.8648ZM27.1231 46.7945L27.1227 46.7941C26.3751 46.2044 25.7714 45.4525 25.3571 44.5951C24.9429 43.7378 24.7289 42.7975 24.7313 41.8454V41.8448V30.5313C25.8246 30.8003 26.981 30.6749 27.9944 30.1723H28.0404L28.1095 30.2413L28.1094 46.3178C28.1094 46.4322 28.0772 46.5442 28.0164 46.6411C27.9556 46.738 27.8688 46.8157 27.7658 46.8655C27.6628 46.9153 27.5479 46.935 27.4342 46.9224C27.3206 46.9099 27.2127 46.8655 27.1231 46.7945ZM41.6551 40.3669L41.655 40.3675C41.6419 40.4811 41.597 40.5887 41.5255 40.678C41.4541 40.7673 41.3589 40.8346 41.2509 40.8722C41.1429 40.9098 41.0265 40.9163 40.915 40.8907C40.8035 40.8652 40.7015 40.8088 40.6206 40.7279L40.4632 40.8853L40.6206 40.7279L29.204 29.3113L31.5928 26.9226L39.8464 35.1762L39.8468 35.1766C40.5219 35.8482 41.0355 36.6644 41.3487 37.5635C41.662 38.4627 41.7667 39.4213 41.6551 40.3669Z" fill="#285A43" stroke="#285A43" stroke-width="0.445322"/>
<path d="M27.9589 25.9101C27.9589 25.4279 27.7917 24.9606 27.4857 24.5878C27.1797 24.215 26.754 23.9597 26.2809 23.8657C25.8079 23.7716 25.3168 23.8444 24.8915 24.0718C24.4661 24.2991 24.1327 24.667 23.9482 25.1126C23.7636 25.5582 23.7392 26.054 23.8793 26.5155C24.0193 26.9771 24.315 27.3758 24.7161 27.6437C25.1171 27.9117 25.5986 28.0323 26.0786 27.985C26.5585 27.9377 27.0071 27.7255 27.3481 27.3846C27.5424 27.1914 27.6963 26.9616 27.8012 26.7085C27.906 26.4554 27.9596 26.184 27.9589 25.9101ZM27.9589 25.9101C27.9589 25.91 27.9589 25.9099 27.9589 25.9097L27.7363 25.9103L27.9589 25.9103C27.9589 25.9103 27.9589 25.9102 27.9589 25.9101ZM26.3364 26.3717L26.336 26.3721C26.2291 26.4789 26.0885 26.5454 25.9382 26.5602C25.7878 26.575 25.6369 26.5372 25.5113 26.4533C25.3857 26.3693 25.293 26.2444 25.2492 26.0998C25.2053 25.9552 25.213 25.7999 25.2708 25.6603C25.3286 25.5207 25.4331 25.4055 25.5664 25.3342C25.6996 25.263 25.8535 25.2402 26.0017 25.2697C26.1499 25.2992 26.2832 25.3792 26.3791 25.496C26.4749 25.6128 26.5273 25.7592 26.5273 25.9103L26.5273 25.9109C26.5275 25.9965 26.5108 26.0813 26.478 26.1604C26.4452 26.2395 26.3971 26.3113 26.3364 26.3717Z" fill="#285A43" stroke="#285A43" stroke-width="0.445322"/>
</svg>
