<svg width="57" height="58" viewBox="0 0 57 58" fill="none" xmlns="http://www.w3.org/2000/svg">
<path d="M45.9612 11.0415L45.9612 11.0415C46.0955 11.1758 46.1709 11.3578 46.1709 11.5477C46.1709 20.1745 39.3425 27.2352 30.8068 27.6111V34.6738C34.1664 34.7975 37.433 35.8197 40.2653 37.6358M45.9612 11.0415L40.1459 37.8237M45.9612 11.0415C45.827 10.9073 45.6449 10.8319 45.4551 10.8319C37.5503 10.8319 30.9603 16.5648 29.623 24.0911C28.7628 22.3191 27.449 20.8002 25.8093 19.6924C23.9571 18.441 21.7733 17.7711 19.5379 17.7686H19.5377C19.3478 17.7686 19.1657 17.8441 19.0315 17.9783C18.8972 18.1125 18.8218 18.2946 18.8218 18.4845L18.8218 18.4847C18.8253 21.3797 19.9476 24.1613 21.9542 26.248C23.9112 28.2834 26.5617 29.504 29.3751 29.6715M45.9612 11.0415L29.3751 29.6715M40.2653 37.6358C40.2656 37.636 40.2658 37.6361 40.2661 37.6363L40.1459 37.8237M40.2653 37.6358C40.265 37.6356 40.2646 37.6354 40.2643 37.6352L40.1459 37.8237M40.2653 37.6358C40.345 37.686 40.414 37.7515 40.4684 37.8285C40.523 37.9058 40.5617 37.9931 40.5823 38.0855C40.6029 38.1778 40.605 38.2733 40.5885 38.3665C40.572 38.4597 40.5371 38.5486 40.486 38.6282C40.4349 38.7079 40.3685 38.7766 40.2906 38.8303C40.2128 38.8841 40.125 38.9219 40.0325 38.9416C39.9399 38.9613 39.8443 38.9624 39.7514 38.9449C39.6588 38.9275 39.5706 38.892 39.4918 38.8404M40.1459 37.8237C40.2011 37.8584 40.2489 37.9037 40.2865 37.9569C40.3241 38.0102 40.3508 38.0703 40.365 38.134C40.3792 38.1976 40.3807 38.2634 40.3693 38.3276C40.3579 38.3918 40.3339 38.4531 40.2986 38.5079C40.2634 38.5628 40.2177 38.6101 40.164 38.6472C40.1104 38.6842 40.0499 38.7103 39.9862 38.7238C39.9224 38.7374 39.8566 38.7381 39.7925 38.7261C39.7285 38.714 39.6674 38.6894 39.6129 38.6536M39.4918 38.8404C39.4921 38.8406 39.4924 38.8408 39.4927 38.841L39.6129 38.6536M39.4918 38.8404C39.4914 38.8402 39.491 38.8399 39.4907 38.8397L39.6129 38.6536M39.4918 38.8404C36.6924 37.0453 33.4371 36.0907 30.1117 36.0897M39.6129 38.6536C36.7742 36.8329 33.4723 35.8657 30.0998 35.867M30.0998 35.867L30.1039 36.0896C30.1086 36.0896 30.1128 36.0893 30.1163 36.089C30.1193 36.0888 30.1218 36.0885 30.1237 36.0883C30.127 36.0879 30.1301 36.0874 30.1282 36.0877L30.128 36.0877C30.127 36.0879 30.1225 36.0886 30.1171 36.0892C30.1155 36.0893 30.1137 36.0895 30.1117 36.0897M30.0998 35.867C30.0984 35.867 30.097 35.8673 30.0956 35.8675C30.094 35.8677 30.0925 35.8679 30.0909 35.8679C30.0879 35.8679 30.085 35.867 30.082 35.867M30.0998 35.867L30.0999 36.0897C30.1039 36.0897 30.1078 36.0897 30.1117 36.0897M30.1117 36.0897C30.1061 36.0902 30.099 36.0906 30.0909 36.0906C30.0829 36.0906 30.0759 36.0902 30.0703 36.0897M30.082 35.867L30.0823 36.0897C30.0822 36.0897 30.0821 36.0897 30.082 36.0897M30.082 35.867C29.3399 35.868 28.5988 35.9157 27.8629 36.0099C27.8881 36.0814 27.9123 36.1532 27.9355 36.2252M30.082 35.867V36.0897M30.0703 36.0897C30.0742 36.0897 30.0781 36.0897 30.082 36.0897M30.0703 36.0897C30.0677 36.0895 30.0653 36.0892 30.0633 36.089C30.0604 36.0887 30.0576 36.0883 30.0556 36.088C30.0537 36.0877 30.0525 36.0875 30.0525 36.0875C30.051 36.0873 30.0546 36.0879 30.0588 36.0884C30.06 36.0885 30.0614 36.0886 30.063 36.0888C30.0678 36.0892 30.0743 36.0897 30.082 36.0897M30.0703 36.0897C29.3565 36.0911 28.6436 36.1364 27.9355 36.2252M27.9355 36.2252C28.5698 38.1934 28.451 40.331 27.5957 42.2209C26.7025 44.1944 25.0764 45.7428 23.0617 46.5384C21.0469 47.3341 18.8016 47.3144 16.801 46.4837C14.8005 45.6529 13.2018 44.0763 12.3433 42.0875C11.4848 40.0987 11.4339 37.8538 12.2015 35.8282C12.9691 33.8026 14.4948 32.1551 16.4556 31.2346C18.4165 30.3142 20.6587 30.1929 22.7074 30.8965C24.7052 31.5826 26.3662 33.0006 27.3577 34.8612M27.9355 36.2252C27.8606 36.2346 27.7858 36.2444 27.711 36.2548C28.3425 38.1811 28.2309 40.2773 27.3928 42.1291C26.5235 44.0499 24.9409 45.557 22.9799 46.3314C21.0189 47.1057 18.8336 47.0866 16.8864 46.2781C14.9393 45.4695 13.3833 43.9349 12.5477 41.9992C11.7121 40.0635 11.6627 37.8786 12.4097 35.9071C13.1568 33.9355 14.6417 32.3321 16.5503 31.4362C18.4588 30.5403 20.641 30.4222 22.6351 31.1071C24.6291 31.7919 26.2783 33.2258 27.2337 35.1052C28.0163 34.9832 28.806 34.9112 29.5978 34.8896V29.4597C26.7626 29.3451 24.0814 28.1391 22.1147 26.0937C20.148 24.0484 19.0479 21.322 19.0445 18.4845L27.3577 34.8612M27.3577 34.8612C28.0264 34.7628 28.6998 34.7004 29.3751 34.6742V29.6715M27.3577 34.8612L29.3751 29.6715M29.5589 24.4797C28.7214 22.6179 27.381 21.023 25.6847 19.8769C23.8692 18.6503 21.7287 17.9937 19.5377 17.9913L29.5589 24.4797ZM30.9223 25.0681C31.8014 18.0961 37.6004 12.6344 44.7211 12.2817C44.3683 19.4024 38.9066 25.2015 31.9344 26.0805L38.2768 19.7381C38.2773 19.7377 38.2777 19.7373 38.2781 19.7369C38.3456 19.6711 38.3993 19.5925 38.4364 19.5058L38.2316 19.4184L38.4364 19.5058C38.4736 19.4186 38.4931 19.3248 38.4938 19.2299C38.4945 19.135 38.4763 19.041 38.4403 18.9532C38.4044 18.8654 38.3513 18.7857 38.2842 18.7186C38.2171 18.6515 38.1374 18.5984 38.0496 18.5624C37.9618 18.5264 37.8677 18.5083 37.7729 18.5089C37.678 18.5096 37.5842 18.5292 37.497 18.5664C37.4102 18.6034 37.3317 18.6572 37.2658 18.7247C37.2654 18.7251 37.265 18.7255 37.2646 18.7259L30.9223 25.0681ZM26.4467 22.0667C28.0994 23.7194 29.1043 25.9067 29.2847 28.2314C26.96 28.0511 24.7727 27.0462 23.12 25.3935C21.4673 23.7409 20.4624 21.5536 20.282 19.2288C22.6068 19.4092 24.7941 20.414 26.4467 22.0667ZM19.9273 45.7712C18.5472 45.7711 17.1981 45.3619 16.0506 44.5952C14.903 43.8284 14.0086 42.7385 13.4804 41.4634C12.9522 40.1883 12.814 38.7852 13.0833 37.4315C13.3525 36.0779 14.0171 34.8345 14.9931 33.8585C15.969 32.8826 17.2124 32.218 18.5661 31.9487C19.9197 31.6794 21.3228 31.8176 22.5979 32.3458C23.8731 32.8739 24.9629 33.7684 25.7297 34.9159C26.4965 36.0634 26.9057 37.4125 26.9058 38.7926C26.9037 40.6428 26.1678 42.4166 24.8595 43.7249C23.5512 45.0331 21.7775 45.7691 19.9273 45.7712Z" fill="#285A43" stroke="#285A43" stroke-width="0.445322"/>
<path d="M23.4804 38.6518H20.6434V35.2862C20.6434 35.0964 20.568 34.9143 20.4337 34.78C20.2995 34.6458 20.1174 34.5704 19.9276 34.5704C19.7377 34.5704 19.5557 34.6458 19.4214 34.78C19.2872 34.9143 19.2118 35.0964 19.2118 35.2862V39.3676C19.2118 39.5574 19.2872 39.7395 19.4214 39.8738C19.5557 40.008 19.7377 40.0834 19.9276 40.0834H23.4804C23.6703 40.0834 23.8523 40.008 23.9866 39.8738C24.1208 39.7395 24.1962 39.5574 24.1962 39.3676C24.1962 39.1778 24.1208 38.9957 23.9866 38.8614C23.8523 38.7272 23.6703 38.6518 23.4804 38.6518Z" fill="#285A43" stroke="#285A43" stroke-width="0.445322"/>
</svg>
