<svg width="57" height="57" viewBox="0 0 57 57" fill="none" xmlns="http://www.w3.org/2000/svg">
<path d="M45.5044 34.0395L45.5041 34.0395C44.0907 34.0412 42.71 34.4655 41.5395 35.2579C40.51 35.9548 39.6845 36.9085 39.1422 38.0207C38.5999 36.9085 37.7744 35.9548 36.7449 35.2579C35.5744 34.4655 34.1938 34.0412 32.7803 34.0395H32.7801H32.0347C31.8448 34.0395 31.6627 34.1149 31.5285 34.2491C31.3942 34.3834 31.3188 34.5655 31.3188 34.7553V35.5008V35.5011C31.3209 37.3775 32.0673 39.1765 33.3941 40.5034C34.721 41.8302 36.52 42.5766 38.3965 42.5787H38.3967H38.4264V45.4201C36.0537 45.5419 33.7525 46.2805 31.7507 47.5646C31.0077 48.0406 30.1438 48.2936 29.2614 48.2936C28.379 48.2935 27.5151 48.0405 26.7721 47.5645C24.7704 46.2805 22.4692 45.542 20.0966 45.4202V42.5787H20.1262H20.1265C22.0029 42.5766 23.8019 41.8303 25.1288 40.5034C26.4557 39.1765 27.2021 37.3775 27.2042 35.5011V35.5008V34.7553C27.2042 34.5655 27.1288 34.3834 26.9945 34.2491C26.8603 34.1149 26.6782 34.0395 26.4884 34.0395L25.7429 34.0395L25.7426 34.0395C24.3291 34.0412 22.9485 34.4655 21.778 35.2579C20.7485 35.9548 19.923 36.9085 19.3807 38.0206C18.8385 36.9085 18.0129 35.9548 16.9834 35.2579C15.813 34.4655 14.4323 34.0412 13.0189 34.0395H13.0186H12.2732C12.0833 34.0395 11.9012 34.1149 11.767 34.2491C11.6328 34.3834 11.5573 34.5655 11.5573 34.7553L11.5573 35.5008L11.5573 35.5011C11.5595 37.3775 12.3058 39.1765 13.6327 40.5034C14.9595 41.8303 16.7586 42.5766 18.635 42.5787H18.6353H18.6649V45.4202C16.2923 45.542 13.9911 46.2806 11.9893 47.5646L11.9892 47.5647C11.8294 47.6673 11.717 47.8291 11.6766 48.0146L11.8936 48.0619L11.6766 48.0146C11.6362 48.2001 11.6712 48.3941 11.7738 48.5538C11.8764 48.7136 12.0383 48.826 12.2238 48.8664C12.4091 48.9067 12.603 48.8719 12.7626 48.7694C14.7383 47.5047 17.0349 46.8326 19.3807 46.8326C21.7265 46.8325 24.0231 47.5046 25.9988 48.7693C26.9726 49.3932 28.1049 49.7248 29.2614 49.7248C30.4179 49.7248 31.5502 49.3932 32.5241 48.7694C34.4998 47.5047 36.7964 46.8325 39.1422 46.8325C41.4876 46.8325 43.7839 47.5044 45.7593 48.7687C45.8382 48.8203 45.9264 48.8558 46.0189 48.8732C46.1119 48.8907 46.2074 48.8895 46.3 48.8699C46.3925 48.8502 46.4803 48.8124 46.5581 48.7586C46.636 48.7048 46.7024 48.6361 46.7535 48.5565C46.8047 48.4769 46.8395 48.3879 46.856 48.2948C46.8726 48.2016 46.8705 48.1061 46.8499 48.0137C46.8292 47.9214 46.7905 47.834 46.7359 47.7567C46.6816 47.6798 46.6126 47.6143 46.5328 47.5641C44.5313 46.2802 42.2304 45.5418 39.8581 45.4201V42.5787H39.8878H39.888C41.7645 42.5766 43.5635 41.8303 44.8903 40.5034C46.2172 39.1765 46.9635 37.3775 46.9656 35.5011V35.5008V34.7553C46.9656 34.5655 46.8902 34.3834 46.756 34.2491V34.2491C46.6217 34.1149 46.4397 34.0395 46.2498 34.0395L45.5044 34.0395ZM25.7431 35.4711L25.7725 35.4711V35.5006C25.7708 36.9976 25.1754 38.4328 24.1168 39.4914C23.0582 40.55 21.623 41.1454 20.126 41.1471H20.0966V41.1177C20.0983 39.6207 20.6937 38.1854 21.7523 37.1269C22.8108 36.0683 24.246 35.4729 25.743 35.4711C25.743 35.4711 25.7431 35.4711 25.7431 35.4711ZM12.989 35.5006L12.989 35.4711L13.0184 35.4711C13.0184 35.4711 13.0184 35.4711 13.0185 35.4711C14.5155 35.4729 15.9507 36.0683 17.0092 37.1269C18.0678 38.1854 18.6632 39.6207 18.6649 41.1177V41.1471H18.6355C17.1385 41.1454 15.7033 40.5499 14.6447 39.4914C13.5861 38.4329 12.9907 36.9977 12.989 35.5007C12.989 35.5006 12.989 35.5006 12.989 35.5006ZM32.7504 35.5006V35.4711L32.7798 35.4711C32.7798 35.4711 32.7799 35.4711 32.7799 35.4711C34.2769 35.4729 35.7121 36.0683 36.7706 37.1269C37.8292 38.1854 38.4247 39.6207 38.4264 41.1177V41.1471H38.3969C36.8999 41.1454 35.4647 40.5499 34.4061 39.4914C33.3476 38.4328 32.7521 36.9976 32.7504 35.5006ZM45.534 35.5006C45.5323 36.9976 44.9368 38.4328 43.8783 39.4914C42.8197 40.5499 41.3845 41.1454 39.8875 41.1471H39.8581V41.1177C39.8598 39.6207 40.4552 38.1854 41.5138 37.1269C42.5723 36.0683 44.0075 35.4729 45.5045 35.4711C45.5046 35.4711 45.5046 35.4711 45.5047 35.4711L45.534 35.4711L45.534 35.5006Z" fill="#285A43" stroke="#285A43" stroke-width="0.445322"/>
<path d="M18.3994 28.0262C18.7373 27.991 19.0629 27.8804 19.3523 27.7023C19.6415 27.5244 19.887 27.2838 20.0707 26.9982C20.0708 26.9981 20.0709 26.998 20.071 26.9978L21.9688 24.0604L29.4552 23.128L31.0613 24.1418L31.0614 24.1418C31.1696 24.2101 31.2943 24.2481 31.4223 24.2519C31.5502 24.2557 31.6769 24.225 31.789 24.1632C31.9011 24.1014 31.9946 24.0106 32.0597 23.9004C32.1248 23.7901 32.1592 23.6644 32.1592 23.5364V19.1052C32.1592 18.9772 32.1248 18.8515 32.0597 18.7412C31.9946 18.631 31.9011 18.5402 31.789 18.4784C31.6769 18.4166 31.5502 18.3859 31.4222 18.3897C31.2943 18.3935 31.1696 18.4315 31.0614 18.4998L31.1802 18.6882L31.0613 18.4999L29.4552 19.5135L25.2454 18.9891L26.5229 17.0119C26.6117 16.8744 26.6507 16.7105 26.6335 16.5478C26.6162 16.385 26.5436 16.233 26.4278 16.1172L26.2704 16.2747L26.4278 16.1172L20.2494 9.93873L20.2427 9.93206L20.2421 9.93152L17.9175 7.60682C17.5605 7.24979 17.1366 6.96657 16.6701 6.77335C16.2037 6.58013 15.7037 6.48068 15.1988 6.48068C14.6939 6.48068 14.1939 6.58013 13.7274 6.77335C13.261 6.96657 12.8371 7.24979 12.4801 7.60682L11.486 8.6008L11.4859 8.60099C10.766 9.32255 10.3617 10.3002 10.3617 11.3195C10.3617 12.3387 10.766 13.3164 11.4859 14.0379L11.486 14.0381L12.0263 14.5784L9.36836 16.2957C9.08323 16.4799 8.84292 16.7256 8.66504 17.0147C8.48715 17.3039 8.37621 17.6291 8.34032 17.9667C8.30444 18.3043 8.34452 18.6456 8.45764 18.9657C8.57076 19.2857 8.75405 19.5764 8.99408 19.8165L8.99409 19.8165L16.5318 27.3542L16.5497 27.3722C16.7604 27.5837 17.0108 27.7516 17.2865 27.8661C17.5623 27.9805 17.8579 28.0394 18.1565 28.0392C18.2376 28.0392 18.3187 28.0348 18.3994 28.0262ZM18.3994 28.0262L18.3763 27.8048L18.4 28.0262C18.3998 28.0262 18.3996 28.0262 18.3994 28.0262ZM29.5323 20.9658L29.5328 20.9658C29.6967 20.9859 29.8625 20.9489 30.0024 20.861L30.0028 20.8608L30.7275 20.4034V22.2381L30.0028 21.7807L30.0025 21.7806C29.8627 21.6925 29.6967 21.6555 29.5326 21.6757L29.5323 21.6757L22.9825 22.4915L24.3827 20.3244L29.5323 20.9658ZM9.7639 18.1185L9.76399 18.1176C9.77703 17.9924 9.81803 17.8718 9.88395 17.7647C9.94988 17.6575 10.039 17.5665 10.1449 17.4985L10.1452 17.4982L19.646 11.3599L25.0066 16.7206L18.8682 26.2212L18.8682 26.2212C18.7999 26.327 18.7087 26.4162 18.6015 26.4821C18.4942 26.5481 18.3736 26.5893 18.2484 26.6026C18.1232 26.6159 17.9966 26.601 17.8778 26.5591C17.7591 26.5171 17.6513 26.4491 17.5623 26.36L17.5622 26.36L10.0064 18.8043L10.0061 18.8039C9.91696 18.7151 9.8489 18.6074 9.80697 18.4888C9.76505 18.3702 9.75032 18.2436 9.7639 18.1185ZM12.4985 13.0261C12.4985 13.0261 12.4985 13.026 12.4984 13.026C12.0466 12.573 11.7928 11.9593 11.7928 11.3195C11.7928 10.6797 12.0466 10.066 12.4984 9.61301C12.4985 9.61297 12.4985 9.61294 12.4985 9.61291L13.4924 8.6191C13.945 8.16659 14.5588 7.91237 15.1988 7.91237C15.8387 7.91237 16.4525 8.16659 16.9051 8.6191L18.6105 10.3245L13.2562 13.7838L12.4985 13.0261Z" fill="#285A43" stroke="#285A43" stroke-width="0.445322"/>
<path d="M40.6556 26.6433L40.6551 26.6426L38.8136 25.0005L38.9547 24.8282C38.9546 24.8281 38.9545 24.828 38.9544 24.8279C38.8817 24.7685 38.7981 24.7239 38.7083 24.6968C38.6183 24.6696 38.5238 24.6604 38.4303 24.6697C38.3367 24.679 38.2459 24.7066 38.1631 24.751C38.0802 24.7954 38.0069 24.8557 37.9473 24.9284C37.827 25.0753 37.77 25.2639 37.7888 25.4528C37.8076 25.6418 37.9007 25.8155 38.0475 25.9358L38.0483 25.9364C38.5943 26.3798 39.0778 26.8951 39.4855 27.4683C39.5949 27.6233 39.7613 27.7285 39.9481 27.7609C40.1352 27.7933 40.3275 27.7501 40.4827 27.6408C40.6379 27.5314 40.7433 27.3649 40.7757 27.1779C40.8081 26.9908 40.7649 26.7985 40.6556 26.6433Z" fill="#285A43" stroke="#285A43" stroke-width="0.445322"/>
<path d="M40.7881 31.3922L40.7881 31.3911C40.7571 30.6888 40.6323 29.9937 40.417 29.3245L40.629 29.2563L40.4174 29.3256C40.3881 29.2363 40.3767 29.142 40.3839 29.0483C40.3911 28.9546 40.4166 28.8632 40.4591 28.7793C40.5017 28.6955 40.5603 28.6208 40.6316 28.5596C40.703 28.4984 40.7856 28.4519 40.875 28.4227L40.7881 31.3922ZM40.7881 31.3922C40.7971 31.5757 40.8762 31.7487 41.0092 31.8755L41.1523 31.7253M40.7881 31.3922L41.1523 31.7253M41.1523 31.7253L41.0092 31.8755C41.1422 32.0022 41.3188 32.073 41.5025 32.0732H41.5027M41.1523 31.7253L41.5027 32.0732M41.5027 32.0732C41.5147 32.0732 41.5259 32.0729 41.5358 32.0725L41.5358 32.0725M41.5027 32.0732L41.5358 32.0725M41.5358 32.0725L41.538 32.0724M41.5358 32.0725L41.538 32.0724M41.538 32.0724C41.7276 32.0631 41.9058 31.9789 42.0333 31.8383C42.1607 31.6979 42.2271 31.5128 42.2182 31.3235C42.1812 30.4934 42.0332 29.672 41.7782 28.8812L41.7782 28.8812M41.538 32.0724L41.7782 28.8812M41.7782 28.8812L41.7779 28.8804M41.7782 28.8812L41.7779 28.8804M41.7779 28.8804C41.7487 28.791 41.7021 28.7083 41.641 28.6369M41.7779 28.8804L41.641 28.6369M41.641 28.6369C41.5798 28.5656 41.5051 28.507 41.4213 28.4645M41.641 28.6369L41.4213 28.4645M41.4213 28.4645C41.3374 28.422 41.246 28.3964 41.1523 28.3892M41.4213 28.4645L41.1523 28.3892M41.1523 28.3892C41.0586 28.3821 40.9644 28.3934 40.875 28.4227L41.1523 28.3892Z" fill="#285A43" stroke="#285A43" stroke-width="0.445322"/>
<path d="M36.2454 24.7774L36.2454 24.7774L36.2469 24.7782C36.3309 24.8203 36.4224 24.8454 36.5162 24.8521C36.6099 24.8589 36.7041 24.8471 36.7933 24.8174C36.8825 24.7878 36.965 24.7408 37.0361 24.6793C37.1071 24.6178 37.1654 24.5428 37.2075 24.4588C37.2496 24.3747 37.2747 24.2832 37.2815 24.1894C37.2882 24.0957 37.2764 24.0015 37.2468 23.9123L37.0355 23.9826L37.2468 23.9123C37.2171 23.8231 37.1702 23.7406 37.1086 23.6696C37.0473 23.5988 36.9727 23.5407 36.889 23.4986C36.1513 23.1212 35.3729 22.8293 34.5689 22.6286L34.569 22.6285L34.5611 22.6268C34.3762 22.5877 34.1833 22.6233 34.0245 22.7258C33.8657 22.8283 33.7539 22.9895 33.7135 23.1742C33.6732 23.3589 33.7075 23.552 33.8089 23.7115C33.9098 23.87 34.0689 23.9824 34.2519 24.0246C34.9421 24.2013 35.6107 24.4538 36.2454 24.7774Z" fill="#285A43" stroke="#285A43" stroke-width="0.445322"/>
<path d="M43.2068 23.1438L43.2068 23.1438L43.2092 23.1456C43.7878 23.5649 44.3181 24.047 44.7906 24.5831C44.916 24.7255 45.0929 24.8123 45.2823 24.8244C45.4718 24.8364 45.6583 24.7727 45.8008 24.6473C45.9433 24.5218 46.0302 24.3449 46.0422 24.1555C46.0543 23.966 45.9906 23.7795 45.8651 23.637L45.8651 23.6369C45.3226 23.0214 44.7138 22.468 44.0495 21.9866L44.0495 21.9866L44.0472 21.9849C43.8934 21.8764 43.7031 21.8328 43.5174 21.8637C43.3317 21.8945 43.1656 21.9972 43.0551 22.1496C42.9446 22.302 42.8985 22.4917 42.9269 22.6778C42.9553 22.8639 43.0559 23.0313 43.2068 23.1438Z" fill="#285A43" stroke="#285A43" stroke-width="0.445322"/>
<path d="M39.2898 21.3649L39.2898 21.3649C39.1064 21.3181 38.9491 21.2005 38.8522 21.038C38.7553 20.8754 38.7267 20.6811 38.7726 20.4976C38.8186 20.314 38.9353 20.1561 39.0974 20.0584C39.2595 19.9607 39.4536 19.9311 39.6374 19.9761L39.638 19.9763L39.638 19.9763C40.4244 20.1714 41.192 20.4357 41.9318 20.7659L39.2898 21.3649ZM39.2898 21.3649L39.2913 21.3653M39.2898 21.3649L39.2913 21.3653M39.2913 21.3653C39.9955 21.5399 40.6829 21.7764 41.3456 22.072M39.2913 21.3653L41.3456 22.072M41.3456 22.072C41.4312 22.1107 41.5235 22.1321 41.6174 22.1351C41.7116 22.1381 41.8054 22.1225 41.8934 22.0892C41.9815 22.0559 42.0622 22.0055 42.1307 21.941L41.9782 21.7788L42.1307 21.941C42.1993 21.8764 42.2545 21.799 42.2931 21.7131C42.3317 21.6272 42.353 21.5345 42.3557 21.4404C42.3584 21.3463 42.3426 21.2525 42.309 21.1645C42.2754 21.0766 42.2248 20.9961 42.1601 20.9276C42.0954 20.8593 42.0178 20.8043 41.9319 20.766L41.3456 22.072Z" fill="#285A43" stroke="#285A43" stroke-width="0.445322"/>
<path d="M47.2739 25.639L47.2739 25.639L47.2736 25.6384C47.2279 25.5562 47.1664 25.4839 47.0927 25.4255C47.019 25.3672 46.9346 25.3239 46.8442 25.2982C46.7537 25.2724 46.6591 25.2647 46.5658 25.2756C46.4724 25.2864 46.3821 25.3155 46.2999 25.3612C46.2178 25.407 46.1455 25.4684 46.0871 25.5421C46.0287 25.6158 45.9854 25.7003 45.9597 25.7907C45.934 25.8811 45.9263 25.9757 45.9371 26.0691C45.948 26.1625 45.9771 26.2528 46.0228 26.3349L46.2173 26.2266L46.0224 26.3343C46.3719 26.9667 46.6621 27.6301 46.8896 28.316L46.8898 28.3165C46.95 28.4966 47.0793 28.6453 47.2492 28.73L47.3485 28.5308L47.2492 28.73C47.4191 28.8147 47.6157 28.8285 47.7957 28.7683C47.9758 28.708 48.1245 28.5787 48.2092 28.4088C48.2938 28.2391 48.3076 28.0427 48.2476 27.8628C47.9922 27.0932 47.6663 26.3487 47.2739 25.639Z" fill="#285A43" stroke="#285A43" stroke-width="0.445322"/>
<path d="M37.1301 21.0011L37.1299 21.0011C36.6909 20.9609 36.253 20.9406 35.8286 20.9406C35.5596 20.9406 35.3441 20.949 35.196 20.9574C35.0502 20.9656 34.9698 20.9738 34.9676 20.974L37.1301 21.0011ZM37.1301 21.0011C37.1525 21.0032 37.1744 21.0041 37.1957 21.0041L37.1959 21.0041M37.1301 21.0011L37.1959 21.0041M37.1959 21.0041C37.3801 21.0039 37.5571 20.9328 37.6902 20.8055M37.1959 21.0041L37.6902 20.8055M37.6902 20.8055C37.8232 20.6782 37.9021 20.5045 37.9104 20.3205M37.6902 20.8055L37.9104 20.3205M37.9104 20.3205C37.9187 20.1365 37.8558 19.9564 37.7347 19.8176M37.9104 20.3205L37.7347 19.8176M37.7347 19.8176C37.6137 19.6789 37.4438 19.5921 37.2604 19.5754L37.7347 19.8176Z" fill="#285A43" stroke="#285A43" stroke-width="0.445322"/>
</svg>
